<svg xmlns="http://www.w3.org/2000/svg" viewBox="0 0 200 128"><defs><filter id="shadow" x="-30%" y="-30%" width="160%" height="180%"><feDropShadow dx="0" dy="5" stdDeviation="4" flood-color="#17161a" flood-opacity=".2"/></filter></defs><g filter="url(#shadow)"><path d="M98 26c-13-15-33-5-34 8-16-1-25 13-19 26-15 12-7 34 8 35 3 15 24 19 36 8l9-7 9 7c12 11 33 7 36-8 15-1 23-23 8-35 6-13-3-27-19-26-1-13-21-23-34-8z" fill="#544451" stroke="#28262a" stroke-width="2"/><path d="M98 32v59M75 35c-12 3-14 17-5 24m-21 7c18-8 30 1 28 15m-16 15c15 3 27-4 25-18m35-43c12 3 14 17 5 24m21 7c-18-8-30 1-28 15m16 15c-15 3-27-4-25-18" fill="none" stroke="#f2ede2" stroke-width="5" stroke-linecap="round"/><path d="M90 31v59" stroke="#c9687f" stroke-width="3"/><path d="M94 29v64" stroke="#d18a65" stroke-width="3"/><path d="M98 29v64" stroke="#d2c76f" stroke-width="3"/><path d="M102 29v64" stroke="#709778" stroke-width="3"/><path d="M106 31v59" stroke="#688fa8" stroke-width="3"/></g></svg>